REM DIRINDEX 1\2,1\3,1\4,1\5,1\6
REM DIRNAME cjc129,folder01,folder02,folder03,folder04,folder05
TITLE ""
FILE "DISC4Track26.mp3" MP3
  TRACK 01 AUDIO
    TITLE "0:"
    INDEX 01 00:00:00
  TRACK 02 AUDIO
    TITLE "3:cjc129_3623"
    INDEX 01 00:00:09
  TRACK 03 AUDIO
    TITLE "0:"
    INDEX 01 00:01:54
  TRACK 04 AUDIO
    TITLE "5:cjc129_3624"
    INDEX 01 00:02:10
  TRACK 05 AUDIO
    TITLE "0:"
    INDEX 01 00:06:10
  TRACK 06 AUDIO
    TITLE "4:cjc129_3625"
    INDEX 01 00:07:05
  TRACK 07 AUDIO
    TITLE "0:"
    INDEX 01 00:08:50
  TRACK 08 AUDIO
    TITLE "6:cjc129_3626"
    INDEX 01 00:09:06
  TRACK 09 AUDIO
    TITLE "0:"
    INDEX 01 00:13:63
  TRACK 10 AUDIO
    TITLE "3:cjc129_3627"
    INDEX 01 00:15:38
  TRACK 11 AUDIO
    TITLE "0:"
    INDEX 01 00:17:06
  TRACK 12 AUDIO
    TITLE "5:cjc129_3628"
    INDEX 01 00:17:35
  TRACK 13 AUDIO
    TITLE "0:"
    INDEX 01 00:21:66
  TRACK 14 AUDIO
    TITLE "4:cjc129_3629"
    INDEX 01 00:22:54
  TRACK 15 AUDIO
    TITLE "0:"
    INDEX 01 00:24:20
  TRACK 16 AUDIO
    TITLE "6:cjc129_3630"
    INDEX 01 00:24:55
  TRACK 17 AUDIO
    TITLE "0:"
    INDEX 01 00:29:15
  TRACK 18 AUDIO
    TITLE "3:cjc129_3631"
    INDEX 01 00:30:65
  TRACK 19 AUDIO
    TITLE "0:"
    INDEX 01 00:32:19
  TRACK 20 AUDIO
    TITLE "5:cjc129_3632"
    INDEX 01 00:32:50
  TRACK 21 AUDIO
    TITLE "0:"
    INDEX 01 00:34:38
  TRACK 22 AUDIO
    TITLE "4:cjc129_3633"
    INDEX 01 00:35:27
  TRACK 23 AUDIO
    TITLE "0:"
    INDEX 01 00:36:56
  TRACK 24 AUDIO
    TITLE "6:cjc129_3634"
    INDEX 01 00:37:14
  TRACK 25 AUDIO
    TITLE "0:"
    INDEX 01 00:39:74
  TRACK 26 AUDIO
    TITLE "3:cjc129_3635"
    INDEX 01 00:41:53
  TRACK 27 AUDIO
    TITLE "0:"
    INDEX 01 00:43:19
  TRACK 28 AUDIO
    TITLE "5:cjc129_3636"
    INDEX 01 00:43:48
  TRACK 29 AUDIO
    TITLE "0:"
    INDEX 01 00:46:02
  TRACK 30 AUDIO
    TITLE "4:cjc129_3637"
    INDEX 01 00:46:66
  TRACK 31 AUDIO
    TITLE "0:"
    INDEX 01 00:48:30
  TRACK 32 AUDIO
    TITLE "6:cjc129_3638"
    INDEX 01 00:48:61
  TRACK 33 AUDIO
    TITLE "0:"
    INDEX 01 00:55:28
  TRACK 34 AUDIO
    TITLE "3:cjc129_3639"
    INDEX 01 00:57:05
  TRACK 35 AUDIO
    TITLE "0:"
    INDEX 01 01:00:17
  TRACK 36 AUDIO
    TITLE "5:cjc129_3640"
    INDEX 01 01:00:49
  TRACK 37 AUDIO
    TITLE "0:"
    INDEX 01 01:03:20
  TRACK 38 AUDIO
    TITLE "4:cjc129_3641"
    INDEX 01 01:04:11
  TRACK 39 AUDIO
    TITLE "0:"
    INDEX 01 01:07:23
  TRACK 40 AUDIO
    TITLE "6:cjc129_3642"
    INDEX 01 01:07:55
  TRACK 41 AUDIO
    TITLE "0:"
    INDEX 01 01:11:11
  TRACK 42 AUDIO
    TITLE "3:cjc129_3643"
    INDEX 01 01:12:60
  TRACK 43 AUDIO
    TITLE "0:"
    INDEX 01 01:15:25
  TRACK 44 AUDIO
    TITLE "5:cjc129_3644"
    INDEX 01 01:15:58
  TRACK 45 AUDIO
    TITLE "0:"
    INDEX 01 01:19:07
  TRACK 46 AUDIO
    TITLE "4:cjc129_3645"
    INDEX 01 01:19:72
  TRACK 47 AUDIO
    TITLE "0:"
    INDEX 01 01:22:37
  TRACK 48 AUDIO
    TITLE "6:cjc129_3646"
    INDEX 01 01:22:70
  TRACK 49 AUDIO
    TITLE "0:"
    INDEX 01 01:30:50
  TRACK 50 AUDIO
    TITLE "3:cjc129_3647"
    INDEX 01 01:32:25
  TRACK 51 AUDIO
    TITLE "0:"
    INDEX 01 01:34:32
  TRACK 52 AUDIO
    TITLE "5:cjc129_3648"
    INDEX 01 01:34:61
  TRACK 53 AUDIO
    TITLE "0:"
    INDEX 01 01:37:71
  TRACK 54 AUDIO
    TITLE "4:cjc129_3649"
    INDEX 01 01:38:61
  TRACK 55 AUDIO
    TITLE "0:"
    INDEX 01 01:40:68
  TRACK 56 AUDIO
    TITLE "6:cjc129_3650"
    INDEX 01 01:41:22
  TRACK 57 AUDIO
    TITLE "0:"
    INDEX 01 01:45:44
  TRACK 58 AUDIO
    TITLE "3:cjc129_3651"
    INDEX 01 01:47:17
  TRACK 59 AUDIO
    TITLE "0:"
    INDEX 01 01:49:67
  TRACK 60 AUDIO
    TITLE "5:cjc129_3652"
    INDEX 01 01:50:27
  TRACK 61 AUDIO
    TITLE "0:"
    INDEX 01 01:52:30
  TRACK 62 AUDIO
    TITLE "4:cjc129_3653"
    INDEX 01 01:53:21
  TRACK 63 AUDIO
    TITLE "0:"
    INDEX 01 01:55:73
  TRACK 64 AUDIO
    TITLE "6:cjc129_3654"
    INDEX 01 01:56:30
  TRACK 65 AUDIO
    TITLE "0:"
    INDEX 01 02:00:49
